<?xml version="1.0" standalone="no"?><!DOCTYPE svg PUBLIC "-//W3C//DTD SVG 1.1//EN" "http://www.w3.org/Graphics/SVG/1.1/DTD/svg11.dtd"><svg t="1587780650602" class="icon" viewBox="0 0 1024 1024" version="1.1" xmlns="http://www.w3.org/2000/svg" p-id="1264" width="400" height="400" xmlns:xlink="http://www.w3.org/1999/xlink"><defs><style type="text/css"></style></defs><path d="M524.552258 467.736774c78.616774 0 143.36-64.082581 143.36-143.36 0-78.616774-64.082581-143.36-143.36-143.36-78.616774 0-143.36 64.082581-143.36 143.36 0.660645 79.277419 64.743226 143.36 143.36 143.36m0 47.566452c-105.042581 0-190.926452-85.223226-190.926452-190.926452 0-105.042581 85.223226-190.926452 190.926452-190.926451 105.042581 0 190.926452 85.223226 190.926452 190.926451 0 105.703226-85.223226 190.926452-190.926452 190.926452z" p-id="1265" fill="#c0cfe2"></path><path d="M238.492903 881.300645c0-194.229677 122.219355-411.581935 286.059355-411.581935 163.84 0 286.059355 217.352258 286.059355 411.581935 0 13.212903-10.570323 23.783226-23.783226 23.783226s-23.783226-10.570323-23.783226-23.783226c0-174.410323-107.024516-363.354839-238.492903-363.354839-131.468387 0-238.492903 188.944516-238.492903 363.354839 0 13.212903-10.570323 23.783226-23.783226 23.783226s-23.783226-10.570323-23.783226-23.783226z" p-id="1266" fill="#c0cfe2"></path></svg>